<?xml version="1.0" encoding="utf-8"?>
<!-- Generator: Adobe Illustrator 17.1.0, SVG Export Plug-In . SVG Version: 6.00 Build 0)  -->
<!DOCTYPE svg PUBLIC "-//W3C//DTD SVG 1.1//EN" "http://www.w3.org/Graphics/SVG/1.1/DTD/svg11.dtd">
<svg version="1.1" xmlns="http://www.w3.org/2000/svg" xmlns:xlink="http://www.w3.org/1999/xlink" x="0px" y="0px"
	 viewBox="0 0 36 36" enable-background="new 0 0 36 36" xml:space="preserve">
<g id="snow01" display="none">
	<g id="Ribbon" display="inline">
		<g>
			<path fill="none" stroke="#A8CAD9" stroke-width="0.1405" d="M17.762,0.07c2.976-0.038,3.595,7.709,5.147,8.518
				c1.767,0.921,8.981-2.499,10.751,0.668c1.563,2.798-5.057,6.995-5.067,8.761c-0.01,1.839,6.498,6.248,4.946,8.945
				c-1.562,2.713-8.638-0.723-10.368,0.245c-1.664,0.93-2.301,8.751-5.315,8.723c-2.949-0.027-3.39-7.841-4.915-8.672
				c-1.694-0.923-8.87,2.55-10.582-0.514c-1.633-2.922,5.022-7.218,5.072-9.059c0.047-1.709-6.484-5.903-5.075-8.431
				c1.564-2.804,8.717,0.47,10.493-0.523C14.441,7.841,14.877,0.107,17.762,0.07z"/>
			<path fill="none" stroke="#A8CAD9" stroke-width="0.1405" d="M18.784,0.336c2.947,0.139,3.111,7.819,4.602,8.723
				c1.669,1.012,8.963-1.969,10.526,1.185c1.393,2.811-5.366,6.594-5.467,8.333c-0.111,1.824,6.059,6.54,4.339,9.127
				c-1.713,2.593-8.48-1.2-10.223-0.346c-1.669,0.821-2.702,8.508-5.661,8.317c-2.934-0.189-2.955-7.947-4.427-8.874
				c-1.599-1.007-8.843,2.041-10.369-1.003c-1.455-2.928,5.311-6.816,5.455-8.624c0.136-1.716-6.025-6.235-4.437-8.689
				c1.718-2.655,8.523,0.973,10.301,0.098C15.039,7.788,15.92,0.196,18.784,0.336z"/>
			<path fill="none" stroke="#A8CAD9" stroke-width="0.1405" d="M19.806,0.602c2.918,0.317,2.627,7.928,4.058,8.929
				c1.572,1.1,8.944-1.438,10.3,1.701c1.222,2.826-5.671,6.194-5.868,7.906c-0.208,1.808,5.614,6.826,3.733,9.309
				c-1.871,2.468-8.322-1.678-10.077-0.937c-1.674,0.713-3.103,8.263-6.008,7.912c-2.919-0.353-2.521-8.052-3.939-9.077
				c-1.504-1.088-8.824,1.537-10.155-1.491c-1.287-2.93,5.604-6.414,5.838-8.19c0.227-1.724-5.572-6.566-3.799-8.947
				c1.867-2.507,8.33,1.478,10.108,0.719C15.639,7.737,16.964,0.285,19.806,0.602z"/>
			<path fill="none" stroke="#A8CAD9" stroke-width="0.1405" d="M20.829,0.867c2.888,0.495,2.144,8.034,3.513,9.134
				c1.474,1.185,8.922-0.906,10.075,2.217c1.049,2.843-5.979,5.794-6.268,7.479c-0.308,1.793,5.174,7.115,3.126,9.491
				c-2.023,2.346-8.165-2.159-9.932-1.528c-1.68,0.601-3.505,8.016-6.354,7.507c-2.905-0.519-2.088-8.152-3.451-9.279
				c-1.41-1.165-8.8,1.029-9.941-1.98c-1.113-2.936,5.899-6.014,6.221-7.755c0.32-1.733-5.122-6.9-3.161-9.205
				c2.01-2.361,8.138,1.984,9.916,1.34C16.241,7.686,18.006,0.375,20.829,0.867z"/>
			<path fill="none" stroke="#A8CAD9" stroke-width="0.1405" d="M21.851,1.133c2.859,0.673,1.661,8.138,2.968,9.34
				c1.379,1.268,8.9-0.372,9.85,2.734c0.875,2.859-6.288,5.394-6.669,7.051c-0.408,1.777,4.735,7.405,2.519,9.673
				c-2.175,2.225-8.008-2.638-9.786-2.119c-1.686,0.492-3.907,7.767-6.701,7.102c-2.89-0.688-1.655-8.25-2.963-9.481
				c-1.318-1.24-8.774,0.52-9.728-2.469c-0.938-2.942,6.196-5.613,6.604-7.32c0.415-1.74-4.678-7.236-2.523-9.462
				c2.148-2.219,7.946,2.491,9.723,1.961C16.843,7.636,19.049,0.463,21.851,1.133z"/>
			<path fill="none" stroke="#A8CAD9" stroke-width="0.1405" d="M22.873,1.398c2.83,0.851,1.18,8.24,2.424,9.545
				c1.286,1.349,8.875,0.163,9.625,3.25c0.699,2.877-6.598,4.994-7.07,6.624c-0.51,1.761,4.297,7.696,1.912,9.854
				c-2.325,2.105-7.85-3.116-9.641-2.709c-1.69,0.383-4.309,7.514-7.046,6.697c-2.876-0.858-1.225-8.347-2.475-9.684
				c-1.227-1.312-8.748,0.011-9.514-2.958c-0.762-2.948,6.495-5.211,6.986-6.886c0.513-1.748-4.237-7.576-1.884-9.72
				c2.282-2.08,7.757,3.001,9.531,2.582C17.445,7.588,20.092,0.552,22.873,1.398z"/>
			<path fill="none" stroke="#A8CAD9" stroke-width="0.1405" d="M23.895,1.664c2.801,1.029,0.701,8.341,1.879,9.751
				c1.193,1.429,8.847,0.698,9.399,3.766c0.521,2.896-6.908,4.593-7.47,6.197c-0.612,1.746,3.86,7.988,1.306,10.036
				c-2.476,1.985-7.691-3.593-9.496-3.3c-1.695,0.275-4.709,7.259-7.392,6.291c-2.86-1.032-0.797-8.441-1.987-9.886
				c-1.139-1.384-8.719-0.499-9.301-3.447c-0.583-2.955,6.797-4.808,7.37-6.451c0.612-1.755-3.8-7.92-1.247-9.978
				c2.413-1.944,7.566,3.512,9.338,3.204C18.048,7.543,21.136,0.642,23.895,1.664z"/>
			<path fill="none" stroke="#A8CAD9" stroke-width="0.1405" d="M24.918,1.93c2.771,1.207,0.224,8.441,1.333,9.957
				c1.103,1.508,8.818,1.233,9.174,4.282c0.34,2.914-7.218,4.192-7.87,5.77c-0.715,1.729,3.423,8.28,0.699,10.218
				c-2.624,1.867-7.533-4.066-9.35-3.891c-1.699,0.17-5.109,7.002-7.739,5.886c-2.843-1.207-0.372-8.534-1.499-10.088
				c-1.054-1.454-8.689-1.009-9.087-3.936c-0.403-2.962,7.099-4.405,7.752-6.016c0.713-1.76-3.365-8.269-0.608-10.236
				c2.542-1.813,7.376,4.025,9.146,3.825C18.652,7.499,22.179,0.73,24.918,1.93z"/>
			<path fill="none" stroke="#A8CAD9" stroke-width="0.1405" d="M25.94,2.195c2.742,1.384-0.251,8.539,0.789,10.162
				c1.016,1.586,8.786,1.767,8.949,4.799c0.158,2.932-7.532,3.79-8.272,5.342c-0.821,1.712,2.989,8.579,0.093,10.4
				c-2.771,1.754-7.376-4.544-9.205-4.482c-1.704,0.061-5.506,6.745-8.085,5.481c-2.825-1.384,0.051-8.626-1.01-10.291
				c-0.97-1.522-8.657-1.518-8.874-4.424c-0.222-2.969,7.404-4.001,8.135-5.582c0.816-1.764-2.932-8.623,0.03-10.493
				c2.67-1.686,7.186,4.54,8.953,4.445C19.254,7.457,23.222,0.819,25.94,2.195z"/>
			<path fill="none" stroke="#A8CAD9" stroke-width="0.1405" d="M0.07,18.238c-0.038-2.976,7.709-3.595,8.518-5.147
				C9.509,11.324,6.089,4.11,9.256,2.34c2.798-1.563,6.995,5.057,8.761,5.067c1.839,0.01,6.248-6.498,8.945-4.946
				c2.713,1.562-0.723,8.638,0.244,10.368c0.93,1.664,8.752,2.301,8.723,5.315c-0.027,2.949-7.841,3.39-8.672,4.915
				c-0.923,1.695,2.55,8.87-0.514,10.582c-2.922,1.634-7.218-5.021-9.059-5.073c-1.709-0.047-5.903,6.485-8.431,5.075
				c-2.804-1.564,0.47-8.717-0.522-10.493C7.841,21.56,0.107,21.123,0.07,18.238z"/>
		</g>
	</g>
</g>
<g id="snow02">
	<g>
		<path fill="none" stroke="#378699" stroke-width="0.1405" d="M17.762,0.07c2.976-0.038,3.595,7.709,5.147,8.518
			c1.767,0.921,8.981-2.499,10.751,0.668c1.563,2.798-5.057,6.995-5.067,8.761c-0.01,1.839,6.498,6.248,4.946,8.945
			c-1.562,2.713-8.638-0.723-10.368,0.245c-1.664,0.93-2.301,8.751-5.315,8.723c-2.949-0.027-3.39-7.841-4.915-8.672
			c-1.694-0.923-8.87,2.55-10.582-0.514c-1.633-2.922,5.022-7.218,5.072-9.059c0.047-1.709-6.484-5.903-5.075-8.431
			c1.564-2.804,8.717,0.47,10.493-0.523C14.441,7.841,14.877,0.107,17.762,0.07z"/>
		<path fill="none" stroke="#378699" stroke-width="0.1405" d="M18.784,0.336c2.947,0.139,3.111,7.819,4.602,8.723
			c1.669,1.012,8.963-1.969,10.526,1.185c1.393,2.811-5.366,6.594-5.467,8.333c-0.111,1.824,6.059,6.54,4.339,9.127
			c-1.713,2.593-8.48-1.2-10.223-0.346c-1.669,0.821-2.702,8.508-5.661,8.317c-2.934-0.189-2.955-7.947-4.427-8.874
			c-1.599-1.007-8.843,2.041-10.369-1.003c-1.455-2.928,5.311-6.816,5.455-8.624c0.136-1.716-6.025-6.235-4.437-8.689
			c1.718-2.655,8.523,0.973,10.301,0.098C15.039,7.788,15.92,0.196,18.784,0.336z"/>
		<path fill="none" stroke="#378699" stroke-width="0.1405" d="M19.806,0.602c2.918,0.317,2.627,7.928,4.058,8.929
			c1.572,1.1,8.944-1.438,10.3,1.701c1.222,2.826-5.671,6.194-5.868,7.906c-0.208,1.808,5.614,6.826,3.733,9.309
			c-1.871,2.468-8.322-1.678-10.077-0.937c-1.674,0.713-3.103,8.263-6.008,7.912c-2.919-0.353-2.521-8.052-3.939-9.077
			c-1.504-1.088-8.824,1.537-10.155-1.491c-1.287-2.93,5.604-6.414,5.838-8.19c0.227-1.724-5.572-6.566-3.799-8.947
			c1.867-2.507,8.33,1.478,10.108,0.719C15.639,7.737,16.964,0.285,19.806,0.602z"/>
		<path fill="none" stroke="#378699" stroke-width="0.1405" d="M20.829,0.867c2.888,0.495,2.144,8.034,3.513,9.134
			c1.474,1.185,8.922-0.906,10.075,2.217c1.049,2.843-5.979,5.794-6.268,7.479c-0.308,1.793,5.174,7.115,3.126,9.491
			c-2.023,2.346-8.165-2.159-9.932-1.528c-1.68,0.601-3.505,8.016-6.354,7.507c-2.905-0.519-2.088-8.152-3.451-9.279
			c-1.41-1.165-8.8,1.029-9.941-1.98c-1.113-2.936,5.899-6.014,6.221-7.755c0.32-1.733-5.122-6.9-3.161-9.205
			c2.01-2.361,8.138,1.984,9.916,1.34C16.241,7.686,18.006,0.375,20.829,0.867z"/>
		<path fill="none" stroke="#378699" stroke-width="0.1405" d="M21.851,1.133c2.859,0.673,1.661,8.138,2.968,9.34
			c1.379,1.268,8.9-0.372,9.85,2.734c0.875,2.859-6.288,5.394-6.669,7.051c-0.408,1.777,4.735,7.405,2.519,9.673
			c-2.175,2.225-8.008-2.638-9.786-2.119c-1.686,0.492-3.907,7.767-6.701,7.102c-2.89-0.688-1.655-8.25-2.963-9.481
			c-1.318-1.24-8.774,0.52-9.728-2.469c-0.938-2.942,6.196-5.613,6.604-7.32c0.415-1.74-4.678-7.236-2.523-9.462
			c2.148-2.219,7.946,2.491,9.723,1.961C16.843,7.636,19.049,0.463,21.851,1.133z"/>
		<path fill="none" stroke="#378699" stroke-width="0.1405" d="M22.873,1.398c2.83,0.851,1.18,8.24,2.424,9.545
			c1.286,1.349,8.875,0.163,9.625,3.25c0.699,2.877-6.598,4.994-7.07,6.624c-0.51,1.761,4.297,7.696,1.912,9.854
			c-2.325,2.105-7.85-3.116-9.641-2.709c-1.69,0.383-4.309,7.514-7.046,6.697c-2.876-0.858-1.225-8.347-2.475-9.684
			c-1.227-1.312-8.748,0.011-9.514-2.958c-0.762-2.948,6.495-5.211,6.986-6.886c0.513-1.748-4.237-7.576-1.884-9.72
			c2.282-2.08,7.757,3.001,9.531,2.582C17.445,7.588,20.092,0.552,22.873,1.398z"/>
		<path fill="none" stroke="#378699" stroke-width="0.1405" d="M23.895,1.664c2.801,1.029,0.701,8.341,1.879,9.751
			c1.193,1.429,8.847,0.698,9.399,3.766c0.521,2.896-6.908,4.593-7.47,6.197c-0.612,1.746,3.86,7.988,1.306,10.036
			c-2.476,1.985-7.691-3.593-9.496-3.3c-1.695,0.275-4.709,7.259-7.392,6.291c-2.86-1.032-0.797-8.441-1.987-9.886
			c-1.139-1.384-8.719-0.499-9.301-3.447c-0.583-2.955,6.797-4.808,7.37-6.451c0.612-1.755-3.8-7.92-1.247-9.978
			c2.413-1.944,7.566,3.512,9.338,3.204C18.048,7.543,21.136,0.642,23.895,1.664z"/>
		<path fill="none" stroke="#378699" stroke-width="0.1405" d="M24.918,1.93c2.771,1.207,0.224,8.441,1.333,9.957
			c1.103,1.508,8.818,1.233,9.174,4.282c0.34,2.914-7.218,4.192-7.87,5.77c-0.715,1.729,3.423,8.28,0.699,10.218
			c-2.624,1.867-7.533-4.066-9.35-3.891c-1.699,0.17-5.109,7.002-7.739,5.886c-2.843-1.207-0.372-8.534-1.499-10.088
			c-1.054-1.454-8.689-1.009-9.087-3.936c-0.403-2.962,7.099-4.405,7.752-6.016c0.713-1.76-3.365-8.269-0.608-10.236
			c2.542-1.813,7.376,4.025,9.146,3.825C18.652,7.499,22.179,0.73,24.918,1.93z"/>
		<path fill="none" stroke="#378699" stroke-width="0.1405" d="M25.94,2.195c2.742,1.384-0.251,8.539,0.789,10.162
			c1.016,1.586,8.786,1.767,8.949,4.799c0.158,2.932-7.532,3.79-8.272,5.342c-0.821,1.712,2.989,8.579,0.093,10.4
			c-2.771,1.754-7.376-4.544-9.205-4.482c-1.704,0.061-5.506,6.745-8.085,5.481c-2.825-1.384,0.051-8.626-1.01-10.291
			c-0.97-1.522-8.657-1.518-8.874-4.424c-0.222-2.969,7.404-4.001,8.135-5.582c0.816-1.764-2.932-8.623,0.03-10.493
			c2.67-1.686,7.186,4.54,8.953,4.445C19.254,7.457,23.222,0.819,25.94,2.195z"/>
		<path fill="none" stroke="#378699" stroke-width="0.1405" d="M0.07,18.238c-0.038-2.976,7.709-3.595,8.518-5.147
			C9.509,11.324,6.089,4.11,9.256,2.34c2.798-1.563,6.995,5.057,8.761,5.067c1.839,0.01,6.248-6.498,8.945-4.946
			c2.713,1.562-0.723,8.638,0.244,10.368c0.93,1.664,8.752,2.301,8.723,5.315c-0.027,2.949-7.841,3.39-8.672,4.915
			c-0.923,1.695,2.55,8.87-0.514,10.582c-2.922,1.634-7.218-5.021-9.059-5.073c-1.709-0.047-5.903,6.485-8.431,5.075
			c-2.804-1.564,0.47-8.717-0.522-10.493C7.841,21.56,0.107,21.123,0.07,18.238z"/>
	</g>
</g>
<g id="snow03" display="none">
	<g display="inline">
		<path fill="none" stroke="#BAC5CB" stroke-width="0.1405" d="M17.762,0.07c2.976-0.038,3.595,7.709,5.147,8.518
			c1.767,0.921,8.981-2.499,10.751,0.668c1.563,2.798-5.057,6.995-5.067,8.761c-0.01,1.839,6.498,6.248,4.946,8.945
			c-1.562,2.713-8.638-0.723-10.368,0.245c-1.664,0.93-2.301,8.751-5.315,8.723c-2.949-0.027-3.39-7.841-4.915-8.672
			c-1.694-0.923-8.87,2.55-10.582-0.514c-1.633-2.922,5.022-7.218,5.072-9.059c0.047-1.709-6.484-5.903-5.075-8.431
			c1.564-2.804,8.717,0.47,10.493-0.523C14.441,7.841,14.877,0.107,17.762,0.07z"/>
		<path fill="none" stroke="#BAC5CB" stroke-width="0.1405" d="M18.784,0.336c2.947,0.139,3.111,7.819,4.602,8.723
			c1.669,1.012,8.963-1.969,10.526,1.185c1.393,2.811-5.366,6.594-5.467,8.333c-0.111,1.824,6.059,6.54,4.339,9.127
			c-1.713,2.593-8.48-1.2-10.223-0.346c-1.669,0.821-2.702,8.508-5.661,8.317c-2.934-0.189-2.955-7.947-4.427-8.874
			c-1.599-1.007-8.843,2.041-10.369-1.003c-1.455-2.928,5.311-6.816,5.455-8.624c0.136-1.716-6.025-6.235-4.437-8.689
			c1.718-2.655,8.523,0.973,10.301,0.098C15.039,7.788,15.92,0.196,18.784,0.336z"/>
		<path fill="none" stroke="#BAC5CB" stroke-width="0.1405" d="M19.806,0.602c2.918,0.317,2.627,7.928,4.058,8.929
			c1.572,1.1,8.944-1.438,10.3,1.701c1.222,2.826-5.671,6.194-5.868,7.906c-0.208,1.808,5.614,6.826,3.733,9.309
			c-1.871,2.468-8.322-1.678-10.077-0.937c-1.674,0.713-3.103,8.263-6.008,7.912c-2.919-0.353-2.521-8.052-3.939-9.077
			c-1.504-1.088-8.824,1.537-10.155-1.491c-1.287-2.93,5.604-6.414,5.838-8.19c0.227-1.724-5.572-6.566-3.799-8.947
			c1.867-2.507,8.33,1.478,10.108,0.719C15.639,7.737,16.964,0.285,19.806,0.602z"/>
		<path fill="none" stroke="#BAC5CB" stroke-width="0.1405" d="M20.829,0.867c2.888,0.495,2.144,8.034,3.513,9.134
			c1.474,1.185,8.922-0.906,10.075,2.217c1.049,2.843-5.979,5.794-6.268,7.479c-0.308,1.793,5.174,7.115,3.126,9.491
			c-2.023,2.346-8.165-2.159-9.932-1.528c-1.68,0.601-3.505,8.016-6.354,7.507c-2.905-0.519-2.088-8.152-3.451-9.279
			c-1.41-1.165-8.8,1.029-9.941-1.98c-1.113-2.936,5.899-6.014,6.221-7.755c0.32-1.733-5.122-6.9-3.161-9.205
			c2.01-2.361,8.138,1.984,9.916,1.34C16.241,7.686,18.006,0.375,20.829,0.867z"/>
		<path fill="none" stroke="#BAC5CB" stroke-width="0.1405" d="M21.851,1.133c2.859,0.673,1.661,8.138,2.968,9.34
			c1.379,1.268,8.9-0.372,9.85,2.734c0.875,2.859-6.288,5.394-6.669,7.051c-0.408,1.777,4.735,7.405,2.519,9.673
			c-2.175,2.225-8.008-2.638-9.786-2.119c-1.686,0.492-3.907,7.767-6.701,7.102c-2.89-0.688-1.655-8.25-2.963-9.481
			c-1.318-1.24-8.774,0.52-9.728-2.469c-0.938-2.942,6.196-5.613,6.604-7.32c0.415-1.74-4.678-7.236-2.523-9.462
			c2.148-2.219,7.946,2.491,9.723,1.961C16.843,7.636,19.049,0.463,21.851,1.133z"/>
		<path fill="none" stroke="#BAC5CB" stroke-width="0.1405" d="M22.873,1.398c2.83,0.851,1.18,8.24,2.424,9.545
			c1.286,1.349,8.875,0.163,9.625,3.25c0.699,2.877-6.598,4.994-7.07,6.624c-0.51,1.761,4.297,7.696,1.912,9.854
			c-2.325,2.105-7.85-3.116-9.641-2.709c-1.69,0.383-4.309,7.514-7.046,6.697c-2.876-0.858-1.225-8.347-2.475-9.684
			c-1.227-1.312-8.748,0.011-9.514-2.958c-0.762-2.948,6.495-5.211,6.986-6.886c0.513-1.748-4.237-7.576-1.884-9.72
			c2.282-2.08,7.757,3.001,9.531,2.582C17.445,7.588,20.092,0.552,22.873,1.398z"/>
		<path fill="none" stroke="#BAC5CB" stroke-width="0.1405" d="M23.895,1.664c2.801,1.029,0.701,8.341,1.879,9.751
			c1.193,1.429,8.847,0.698,9.399,3.766c0.521,2.896-6.908,4.593-7.47,6.197c-0.612,1.746,3.86,7.988,1.306,10.036
			c-2.476,1.985-7.691-3.593-9.496-3.3c-1.695,0.275-4.709,7.259-7.392,6.291c-2.86-1.032-0.797-8.441-1.987-9.886
			c-1.139-1.384-8.719-0.499-9.301-3.447c-0.583-2.955,6.797-4.808,7.37-6.451c0.612-1.755-3.8-7.92-1.247-9.978
			c2.413-1.944,7.566,3.512,9.338,3.204C18.048,7.543,21.136,0.642,23.895,1.664z"/>
		<path fill="none" stroke="#BAC5CB" stroke-width="0.1405" d="M24.918,1.93c2.771,1.207,0.224,8.441,1.333,9.957
			c1.103,1.508,8.818,1.233,9.174,4.282c0.34,2.914-7.218,4.192-7.87,5.77c-0.715,1.729,3.423,8.28,0.699,10.218
			c-2.624,1.867-7.533-4.066-9.35-3.891c-1.699,0.17-5.109,7.002-7.739,5.886c-2.843-1.207-0.372-8.534-1.499-10.088
			c-1.054-1.454-8.689-1.009-9.087-3.936c-0.403-2.962,7.099-4.405,7.752-6.016c0.713-1.76-3.365-8.269-0.608-10.236
			c2.542-1.813,7.376,4.025,9.146,3.825C18.652,7.499,22.179,0.73,24.918,1.93z"/>
		<path fill="none" stroke="#BAC5CB" stroke-width="0.1405" d="M25.94,2.195c2.742,1.384-0.251,8.539,0.789,10.162
			c1.016,1.586,8.786,1.767,8.949,4.799c0.158,2.932-7.532,3.79-8.272,5.342c-0.821,1.712,2.989,8.579,0.093,10.4
			c-2.771,1.754-7.376-4.544-9.205-4.482c-1.704,0.061-5.506,6.745-8.085,5.481c-2.825-1.384,0.051-8.626-1.01-10.291
			c-0.97-1.522-8.657-1.518-8.874-4.424c-0.222-2.969,7.404-4.001,8.135-5.582c0.816-1.764-2.932-8.623,0.03-10.493
			c2.67-1.686,7.186,4.54,8.953,4.445C19.254,7.457,23.222,0.819,25.94,2.195z"/>
		<path fill="none" stroke="#BAC5CB" stroke-width="0.1405" d="M0.07,18.238c-0.038-2.976,7.709-3.595,8.518-5.147
			C9.509,11.324,6.089,4.11,9.256,2.34c2.798-1.563,6.995,5.057,8.761,5.067c1.839,0.01,6.248-6.498,8.945-4.946
			c2.713,1.562-0.723,8.638,0.244,10.368c0.93,1.664,8.752,2.301,8.723,5.315c-0.027,2.949-7.841,3.39-8.672,4.915
			c-0.923,1.695,2.55,8.87-0.514,10.582c-2.922,1.634-7.218-5.021-9.059-5.073c-1.709-0.047-5.903,6.485-8.431,5.075
			c-2.804-1.564,0.47-8.717-0.522-10.493C7.841,21.56,0.107,21.123,0.07,18.238z"/>
	</g>
</g>
</svg>
